<mxfile host="app.diagrams.net" agent="Mozilla/5.0 (Macintosh; Intel Mac OS X 10_15_7) AppleWebKit/605.1.15 (KHTML, like Gecko) Version/18.5 Safari/605.1.15" version="28.0.7">
  <diagram name="Page-1" id="6wP6Tud4KtHaaaDmYSXv">
    <mxGraphModel dx="1426" dy="807" grid="1" gridSize="10" guides="1" tooltips="1" connect="1" arrows="1" fold="1" page="1" pageScale="1" pageWidth="850" pageHeight="1100" math="0" shadow="0">
      <root>
        <mxCell id="0" />
        <mxCell id="1" parent="0" />
        <mxCell id="ahKyo10TzwyXuJ--luOa-10" value="" style="edgeStyle=orthogonalEdgeStyle;rounded=0;orthogonalLoop=1;jettySize=auto;html=1;" edge="1" parent="1" source="ahKyo10TzwyXuJ--luOa-2" target="ahKyo10TzwyXuJ--luOa-7">
          <mxGeometry relative="1" as="geometry">
            <Array as="points">
              <mxPoint x="110" y="330" />
              <mxPoint x="110" y="330" />
            </Array>
          </mxGeometry>
        </mxCell>
        <mxCell id="ahKyo10TzwyXuJ--luOa-2" value="" style="image;aspect=fixed;html=1;points=[];align=center;fontSize=12;image=img/lib/azure2/general/File.svg;" vertex="1" parent="1">
          <mxGeometry x="30" y="290" width="56.00000000000001" height="69" as="geometry" />
        </mxCell>
        <mxCell id="ahKyo10TzwyXuJ--luOa-4" value="AWS Cloud" style="points=[[0,0],[0.25,0],[0.5,0],[0.75,0],[1,0],[1,0.25],[1,0.5],[1,0.75],[1,1],[0.75,1],[0.5,1],[0.25,1],[0,1],[0,0.75],[0,0.5],[0,0.25]];outlineConnect=0;gradientColor=none;html=1;whiteSpace=wrap;fontSize=12;fontStyle=0;container=1;pointerEvents=0;collapsible=0;recursiveResize=0;shape=mxgraph.aws4.group;grIcon=mxgraph.aws4.group_aws_cloud_alt;strokeColor=#232F3E;fillColor=none;verticalAlign=top;align=left;spacingLeft=30;fontColor=#232F3E;dashed=0;" vertex="1" parent="1">
          <mxGeometry x="130" y="130" width="1150" height="550" as="geometry" />
        </mxCell>
        <mxCell id="ahKyo10TzwyXuJ--luOa-6" value="" style="sketch=0;outlineConnect=0;fontColor=#232F3E;gradientColor=none;fillColor=#7AA116;strokeColor=none;dashed=0;verticalLabelPosition=bottom;verticalAlign=top;align=center;html=1;fontSize=12;fontStyle=0;aspect=fixed;pointerEvents=1;shape=mxgraph.aws4.lambda_function;" vertex="1" parent="ahKyo10TzwyXuJ--luOa-4">
          <mxGeometry x="210" y="160" width="78" height="78" as="geometry" />
        </mxCell>
        <mxCell id="ahKyo10TzwyXuJ--luOa-15" style="edgeStyle=orthogonalEdgeStyle;rounded=0;orthogonalLoop=1;jettySize=auto;html=1;" edge="1" parent="ahKyo10TzwyXuJ--luOa-4" source="ahKyo10TzwyXuJ--luOa-7" target="ahKyo10TzwyXuJ--luOa-6">
          <mxGeometry relative="1" as="geometry" />
        </mxCell>
        <mxCell id="ahKyo10TzwyXuJ--luOa-7" value="" style="sketch=0;outlineConnect=0;fontColor=#232F3E;gradientColor=none;fillColor=#7AA116;strokeColor=none;dashed=0;verticalLabelPosition=bottom;verticalAlign=top;align=center;html=1;fontSize=12;fontStyle=0;aspect=fixed;pointerEvents=1;shape=mxgraph.aws4.bucket;" vertex="1" parent="ahKyo10TzwyXuJ--luOa-4">
          <mxGeometry x="60" y="160" width="75" height="78" as="geometry" />
        </mxCell>
        <mxCell id="ahKyo10TzwyXuJ--luOa-9" value="s3://bucket/raw" style="text;strokeColor=none;align=center;fillColor=none;html=1;verticalAlign=middle;whiteSpace=wrap;rounded=0;" vertex="1" parent="ahKyo10TzwyXuJ--luOa-4">
          <mxGeometry x="60" y="238" width="70" height="31" as="geometry" />
        </mxCell>
        <mxCell id="ahKyo10TzwyXuJ--luOa-19" style="edgeStyle=orthogonalEdgeStyle;rounded=0;orthogonalLoop=1;jettySize=auto;html=1;" edge="1" parent="ahKyo10TzwyXuJ--luOa-4" source="ahKyo10TzwyXuJ--luOa-11" target="ahKyo10TzwyXuJ--luOa-18">
          <mxGeometry relative="1" as="geometry">
            <Array as="points">
              <mxPoint x="210" y="370" />
              <mxPoint x="210" y="370" />
            </Array>
          </mxGeometry>
        </mxCell>
        <mxCell id="ahKyo10TzwyXuJ--luOa-11" value="AWS CodeCommit" style="sketch=0;outlineConnect=0;fontColor=#232F3E;gradientColor=none;strokeColor=#ffffff;fillColor=#232F3E;dashed=0;verticalLabelPosition=middle;verticalAlign=bottom;align=center;html=1;whiteSpace=wrap;fontSize=10;fontStyle=1;spacing=3;shape=mxgraph.aws4.productIcon;prIcon=mxgraph.aws4.codecommit;" vertex="1" parent="ahKyo10TzwyXuJ--luOa-4">
          <mxGeometry x="100" y="330" width="80" height="110" as="geometry" />
        </mxCell>
        <mxCell id="ahKyo10TzwyXuJ--luOa-14" style="edgeStyle=orthogonalEdgeStyle;rounded=0;orthogonalLoop=1;jettySize=auto;html=1;" edge="1" parent="ahKyo10TzwyXuJ--luOa-4" source="ahKyo10TzwyXuJ--luOa-12" target="ahKyo10TzwyXuJ--luOa-11">
          <mxGeometry relative="1" as="geometry">
            <Array as="points">
              <mxPoint x="110" y="370" />
              <mxPoint x="110" y="370" />
            </Array>
          </mxGeometry>
        </mxCell>
        <mxCell id="ahKyo10TzwyXuJ--luOa-12" value="" style="shape=actor;whiteSpace=wrap;html=1;" vertex="1" parent="ahKyo10TzwyXuJ--luOa-4">
          <mxGeometry x="20" y="340" width="40" height="60" as="geometry" />
        </mxCell>
        <mxCell id="ahKyo10TzwyXuJ--luOa-13" value="data engineer pushes code" style="text;strokeColor=none;align=center;fillColor=none;html=1;verticalAlign=middle;whiteSpace=wrap;rounded=0;" vertex="1" parent="ahKyo10TzwyXuJ--luOa-4">
          <mxGeometry x="5" y="409" width="100" height="31" as="geometry" />
        </mxCell>
        <mxCell id="ahKyo10TzwyXuJ--luOa-16" value="s3 Events Notification triggered" style="text;strokeColor=none;align=center;fillColor=none;html=1;verticalAlign=middle;whiteSpace=wrap;rounded=0;" vertex="1" parent="ahKyo10TzwyXuJ--luOa-4">
          <mxGeometry x="80" y="119" width="170" height="41" as="geometry" />
        </mxCell>
        <mxCell id="ahKyo10TzwyXuJ--luOa-17" value="lambda func picks up files" style="text;strokeColor=none;align=center;fillColor=none;html=1;verticalAlign=middle;whiteSpace=wrap;rounded=0;" vertex="1" parent="ahKyo10TzwyXuJ--luOa-4">
          <mxGeometry x="171" y="239" width="156" height="31" as="geometry" />
        </mxCell>
        <mxCell id="ahKyo10TzwyXuJ--luOa-106" style="edgeStyle=orthogonalEdgeStyle;rounded=0;orthogonalLoop=1;jettySize=auto;html=1;" edge="1" parent="ahKyo10TzwyXuJ--luOa-4" source="ahKyo10TzwyXuJ--luOa-18" target="ahKyo10TzwyXuJ--luOa-20">
          <mxGeometry relative="1" as="geometry">
            <Array as="points">
              <mxPoint x="268" y="310" />
              <mxPoint x="310" y="310" />
              <mxPoint x="310" y="290" />
            </Array>
          </mxGeometry>
        </mxCell>
        <mxCell id="ahKyo10TzwyXuJ--luOa-18" value="AWS CodePipeline" style="sketch=0;outlineConnect=0;fontColor=#232F3E;gradientColor=none;strokeColor=#ffffff;fillColor=#232F3E;dashed=0;verticalLabelPosition=middle;verticalAlign=bottom;align=center;html=1;whiteSpace=wrap;fontSize=10;fontStyle=1;spacing=3;shape=mxgraph.aws4.productIcon;prIcon=mxgraph.aws4.codepipeline;" vertex="1" parent="ahKyo10TzwyXuJ--luOa-4">
          <mxGeometry x="228" y="330" width="80" height="110" as="geometry" />
        </mxCell>
        <mxCell id="ahKyo10TzwyXuJ--luOa-25" style="edgeStyle=orthogonalEdgeStyle;rounded=0;orthogonalLoop=1;jettySize=auto;html=1;" edge="1" parent="ahKyo10TzwyXuJ--luOa-4" source="ahKyo10TzwyXuJ--luOa-21" target="ahKyo10TzwyXuJ--luOa-24">
          <mxGeometry relative="1" as="geometry">
            <Array as="points">
              <mxPoint x="510" y="200" />
              <mxPoint x="510" y="200" />
            </Array>
          </mxGeometry>
        </mxCell>
        <mxCell id="ahKyo10TzwyXuJ--luOa-21" value="" style="sketch=0;outlineConnect=0;fontColor=#232F3E;gradientColor=none;fillColor=#7AA116;strokeColor=none;dashed=0;verticalLabelPosition=bottom;verticalAlign=top;align=center;html=1;fontSize=12;fontStyle=0;aspect=fixed;pointerEvents=1;shape=mxgraph.aws4.bucket;" vertex="1" parent="ahKyo10TzwyXuJ--luOa-4">
          <mxGeometry x="360" y="160" width="75" height="78" as="geometry" />
        </mxCell>
        <mxCell id="ahKyo10TzwyXuJ--luOa-22" value="s3://bucket/curated" style="text;strokeColor=none;align=center;fillColor=none;html=1;verticalAlign=middle;whiteSpace=wrap;rounded=0;" vertex="1" parent="ahKyo10TzwyXuJ--luOa-4">
          <mxGeometry x="362.5" y="244.5" width="70" height="31" as="geometry" />
        </mxCell>
        <mxCell id="ahKyo10TzwyXuJ--luOa-23" style="edgeStyle=orthogonalEdgeStyle;rounded=0;orthogonalLoop=1;jettySize=auto;html=1;" edge="1" parent="ahKyo10TzwyXuJ--luOa-4" source="ahKyo10TzwyXuJ--luOa-6">
          <mxGeometry relative="1" as="geometry">
            <mxPoint x="370" y="200" as="targetPoint" />
          </mxGeometry>
        </mxCell>
        <mxCell id="ahKyo10TzwyXuJ--luOa-24" value="" style="sketch=0;outlineConnect=0;fontColor=#232F3E;gradientColor=none;fillColor=#8C4FFF;strokeColor=none;dashed=0;verticalLabelPosition=bottom;verticalAlign=top;align=center;html=1;fontSize=12;fontStyle=0;aspect=fixed;pointerEvents=1;shape=mxgraph.aws4.glue_crawlers;" vertex="1" parent="ahKyo10TzwyXuJ--luOa-4">
          <mxGeometry x="500" y="170" width="78" height="78" as="geometry" />
        </mxCell>
        <mxCell id="ahKyo10TzwyXuJ--luOa-27" value="Run Glue Crawler" style="text;strokeColor=none;align=center;fillColor=none;html=1;verticalAlign=middle;whiteSpace=wrap;rounded=0;" vertex="1" parent="ahKyo10TzwyXuJ--luOa-4">
          <mxGeometry x="489" y="250" width="100" height="20" as="geometry" />
        </mxCell>
        <mxCell id="ahKyo10TzwyXuJ--luOa-58" style="edgeStyle=orthogonalEdgeStyle;rounded=0;orthogonalLoop=1;jettySize=auto;html=1;" edge="1" parent="ahKyo10TzwyXuJ--luOa-4" source="ahKyo10TzwyXuJ--luOa-28" target="ahKyo10TzwyXuJ--luOa-55">
          <mxGeometry relative="1" as="geometry">
            <Array as="points">
              <mxPoint x="760" y="210" />
              <mxPoint x="760" y="210" />
            </Array>
          </mxGeometry>
        </mxCell>
        <mxCell id="ahKyo10TzwyXuJ--luOa-28" value="AWS Glue" style="sketch=0;outlineConnect=0;fontColor=#232F3E;gradientColor=none;strokeColor=#ffffff;fillColor=#232F3E;dashed=0;verticalLabelPosition=middle;verticalAlign=bottom;align=center;html=1;whiteSpace=wrap;fontSize=10;fontStyle=1;spacing=3;shape=mxgraph.aws4.productIcon;prIcon=mxgraph.aws4.glue;" vertex="1" parent="ahKyo10TzwyXuJ--luOa-4">
          <mxGeometry x="630" y="169" width="80" height="100" as="geometry" />
        </mxCell>
        <mxCell id="ahKyo10TzwyXuJ--luOa-29" style="edgeStyle=orthogonalEdgeStyle;rounded=0;orthogonalLoop=1;jettySize=auto;html=1;entryX=-0.012;entryY=0.42;entryDx=0;entryDy=0;entryPerimeter=0;" edge="1" parent="ahKyo10TzwyXuJ--luOa-4" source="ahKyo10TzwyXuJ--luOa-24">
          <mxGeometry relative="1" as="geometry">
            <mxPoint x="629.04" y="201" as="targetPoint" />
            <Array as="points">
              <mxPoint x="600" y="200" />
            </Array>
          </mxGeometry>
        </mxCell>
        <mxCell id="ahKyo10TzwyXuJ--luOa-30" value="Run Glue ETL Job&lt;div&gt;&lt;br&gt;&lt;/div&gt;" style="text;strokeColor=none;align=center;fillColor=none;html=1;verticalAlign=middle;whiteSpace=wrap;rounded=0;" vertex="1" parent="ahKyo10TzwyXuJ--luOa-4">
          <mxGeometry x="620" y="280" width="110" height="30" as="geometry" />
        </mxCell>
        <mxCell id="ahKyo10TzwyXuJ--luOa-31" style="edgeStyle=orthogonalEdgeStyle;rounded=0;orthogonalLoop=1;jettySize=auto;html=1;exitX=1;exitY=0.5;exitDx=0;exitDy=0;entryX=1;entryY=0.25;entryDx=0;entryDy=0;" edge="1" parent="ahKyo10TzwyXuJ--luOa-4" source="ahKyo10TzwyXuJ--luOa-22" target="ahKyo10TzwyXuJ--luOa-22">
          <mxGeometry relative="1" as="geometry" />
        </mxCell>
        <mxCell id="ahKyo10TzwyXuJ--luOa-55" value="" style="sketch=0;outlineConnect=0;fontColor=#232F3E;gradientColor=none;fillColor=#7AA116;strokeColor=none;dashed=0;verticalLabelPosition=bottom;verticalAlign=top;align=center;html=1;fontSize=12;fontStyle=0;aspect=fixed;pointerEvents=1;shape=mxgraph.aws4.bucket;" vertex="1" parent="ahKyo10TzwyXuJ--luOa-4">
          <mxGeometry x="770" y="169" width="75" height="78" as="geometry" />
        </mxCell>
        <mxCell id="ahKyo10TzwyXuJ--luOa-60" style="edgeStyle=orthogonalEdgeStyle;rounded=0;orthogonalLoop=1;jettySize=auto;html=1;" edge="1" parent="ahKyo10TzwyXuJ--luOa-4" source="ahKyo10TzwyXuJ--luOa-59" target="ahKyo10TzwyXuJ--luOa-55">
          <mxGeometry relative="1" as="geometry">
            <Array as="points">
              <mxPoint x="890" y="208" />
              <mxPoint x="890" y="208" />
            </Array>
          </mxGeometry>
        </mxCell>
        <mxCell id="ahKyo10TzwyXuJ--luOa-69" style="edgeStyle=orthogonalEdgeStyle;rounded=0;orthogonalLoop=1;jettySize=auto;html=1;" edge="1" parent="ahKyo10TzwyXuJ--luOa-4" source="ahKyo10TzwyXuJ--luOa-59" target="ahKyo10TzwyXuJ--luOa-67">
          <mxGeometry relative="1" as="geometry">
            <Array as="points">
              <mxPoint x="1000" y="221" />
              <mxPoint x="1000" y="221" />
            </Array>
          </mxGeometry>
        </mxCell>
        <mxCell id="ahKyo10TzwyXuJ--luOa-59" value="Amazon Redshift" style="sketch=0;outlineConnect=0;fontColor=#232F3E;gradientColor=none;strokeColor=#ffffff;fillColor=#232F3E;dashed=0;verticalLabelPosition=middle;verticalAlign=bottom;align=center;html=1;whiteSpace=wrap;fontSize=10;fontStyle=1;spacing=3;shape=mxgraph.aws4.productIcon;prIcon=mxgraph.aws4.redshift;" vertex="1" parent="ahKyo10TzwyXuJ--luOa-4">
          <mxGeometry x="900" y="170" width="80" height="110" as="geometry" />
        </mxCell>
        <mxCell id="ahKyo10TzwyXuJ--luOa-66" value="s3://bucket/aggregated" style="text;strokeColor=none;align=center;fillColor=none;html=1;verticalAlign=middle;whiteSpace=wrap;rounded=0;" vertex="1" parent="ahKyo10TzwyXuJ--luOa-4">
          <mxGeometry x="770" y="250" width="70" height="31" as="geometry" />
        </mxCell>
        <mxCell id="ahKyo10TzwyXuJ--luOa-67" value="Amazon QuickSight" style="sketch=0;outlineConnect=0;fontColor=#232F3E;gradientColor=none;strokeColor=#ffffff;fillColor=#232F3E;dashed=0;verticalLabelPosition=middle;verticalAlign=bottom;align=center;html=1;whiteSpace=wrap;fontSize=10;fontStyle=1;spacing=3;shape=mxgraph.aws4.productIcon;prIcon=mxgraph.aws4.quicksight;" vertex="1" parent="ahKyo10TzwyXuJ--luOa-4">
          <mxGeometry x="1040" y="165.5" width="80" height="110" as="geometry" />
        </mxCell>
        <mxCell id="ahKyo10TzwyXuJ--luOa-70" value="Data Warehouse" style="text;strokeColor=none;align=center;fillColor=none;html=1;verticalAlign=middle;whiteSpace=wrap;rounded=0;" vertex="1" parent="ahKyo10TzwyXuJ--luOa-4">
          <mxGeometry x="885" y="281" width="110" height="30" as="geometry" />
        </mxCell>
        <mxCell id="ahKyo10TzwyXuJ--luOa-102" value="Reporting" style="text;strokeColor=none;align=center;fillColor=none;html=1;verticalAlign=middle;whiteSpace=wrap;rounded=0;" vertex="1" parent="ahKyo10TzwyXuJ--luOa-4">
          <mxGeometry x="1025" y="280" width="110" height="30" as="geometry" />
        </mxCell>
        <mxCell id="ahKyo10TzwyXuJ--luOa-20" value="AWS Step Functions workflow" style="sketch=0;outlineConnect=0;gradientColor=none;html=1;whiteSpace=wrap;fontSize=12;fontStyle=0;shape=mxgraph.aws4.group;grIcon=mxgraph.aws4.group_aws_step_functions_workflow;strokeColor=#545B64;fillColor=none;verticalAlign=top;align=left;spacingLeft=30;fontColor=#545B64;dashed=0;" vertex="1" parent="ahKyo10TzwyXuJ--luOa-4">
          <mxGeometry x="330" y="30" width="550" height="420" as="geometry" />
        </mxCell>
        <mxCell id="ahKyo10TzwyXuJ--luOa-107" value="Pre-update Catalogue" style="text;html=1;align=center;verticalAlign=middle;whiteSpace=wrap;rounded=0;labelBorderColor=default;" vertex="1" parent="ahKyo10TzwyXuJ--luOa-4">
          <mxGeometry x="489" y="83.5" width="190" height="41" as="geometry" />
        </mxCell>
        <mxCell id="ahKyo10TzwyXuJ--luOa-108" value="Post-update Catalogue" style="text;html=1;align=center;verticalAlign=middle;whiteSpace=wrap;rounded=0;labelBorderColor=default;" vertex="1" parent="ahKyo10TzwyXuJ--luOa-4">
          <mxGeometry x="490" y="311" width="180" height="51" as="geometry" />
        </mxCell>
        <mxCell id="ahKyo10TzwyXuJ--luOa-109" value="" style="sketch=0;outlineConnect=0;fontColor=#232F3E;gradientColor=none;fillColor=#ED7100;strokeColor=none;dashed=0;verticalLabelPosition=bottom;verticalAlign=top;align=center;html=1;fontSize=12;fontStyle=0;aspect=fixed;pointerEvents=1;shape=mxgraph.aws4.lambda_function;" vertex="1" parent="ahKyo10TzwyXuJ--luOa-4">
          <mxGeometry x="452" y="80" width="48" height="48" as="geometry" />
        </mxCell>
        <mxCell id="ahKyo10TzwyXuJ--luOa-110" value="" style="sketch=0;outlineConnect=0;fontColor=#232F3E;gradientColor=none;fillColor=#ED7100;strokeColor=none;dashed=0;verticalLabelPosition=bottom;verticalAlign=top;align=center;html=1;fontSize=12;fontStyle=0;aspect=fixed;pointerEvents=1;shape=mxgraph.aws4.lambda_function;" vertex="1" parent="ahKyo10TzwyXuJ--luOa-4">
          <mxGeometry x="442" y="310" width="48" height="48" as="geometry" />
        </mxCell>
        <mxCell id="ahKyo10TzwyXuJ--luOa-5" value="Kaggle API" style="text;strokeColor=none;align=center;fillColor=none;html=1;verticalAlign=middle;whiteSpace=wrap;rounded=0;" vertex="1" parent="1">
          <mxGeometry x="23" y="240" width="70" height="30" as="geometry" />
        </mxCell>
        <mxCell id="ahKyo10TzwyXuJ--luOa-8" value="Source" style="text;strokeColor=none;align=center;fillColor=none;html=1;verticalAlign=middle;whiteSpace=wrap;rounded=0;" vertex="1" parent="1">
          <mxGeometry x="23" y="370" width="70" height="30" as="geometry" />
        </mxCell>
      </root>
    </mxGraphModel>
  </diagram>
</mxfile>
